<svg width="178" height="178" viewBox="0 0 178 178" fill="none" xmlns="http://www.w3.org/2000/svg">
<path d="M22.25 89H89V100.125H22.25V89Z" fill="#75CFDB"/>
<path d="M11.125 61.1875H66.75V72.3125H11.125V61.1875Z" fill="#75CFDB"/>
<path d="M166.424 92.3709L149.737 53.4334C149.309 52.4326 148.596 51.5796 147.687 50.9803C146.778 50.381 145.714 50.0619 144.625 50.0625H127.938V38.9375C127.938 37.4622 127.351 36.0474 126.308 35.0042C125.265 33.961 123.85 33.375 122.375 33.375H33.375V44.5H116.813V114.343C114.278 115.815 112.06 117.774 110.286 120.107C108.512 122.44 107.218 125.102 106.477 127.938H71.5226C70.1687 122.694 66.949 118.124 62.4668 115.085C57.9847 112.045 52.5479 110.745 47.1756 111.427C41.8032 112.11 36.8642 114.728 33.2842 118.791C29.7042 122.855 27.7292 128.084 27.7292 133.5C27.7292 138.916 29.7042 144.145 33.2842 148.209C36.8642 152.272 41.8032 154.89 47.1756 155.573C52.5479 156.255 57.9847 154.955 62.4668 151.915C66.949 148.876 70.1687 144.306 71.5226 139.062H106.477C107.687 143.836 110.455 148.071 114.342 151.095C118.228 154.12 123.013 155.762 127.938 155.762C132.862 155.762 137.647 154.12 141.533 151.095C145.42 148.071 148.188 143.836 149.398 139.062H161.312C162.788 139.062 164.203 138.476 165.246 137.433C166.289 136.39 166.875 134.975 166.875 133.5V94.5625C166.875 93.8089 166.722 93.0632 166.424 92.3709ZM50.0625 144.625C47.8622 144.625 45.7113 143.973 43.8818 142.75C42.0523 141.528 40.6264 139.79 39.7843 137.757C38.9423 135.725 38.722 133.488 39.1513 131.33C39.5805 129.172 40.6401 127.189 42.1959 125.633C43.7518 124.078 45.7341 123.018 47.8921 122.589C50.0502 122.16 52.287 122.38 54.3199 123.222C56.3527 124.064 58.0902 125.49 59.3126 127.319C60.535 129.149 61.1875 131.3 61.1875 133.5C61.1846 136.45 60.0115 139.278 57.9258 141.363C55.8401 143.449 53.0121 144.622 50.0625 144.625ZM127.938 61.1875H140.954L152.88 89H127.938V61.1875ZM127.938 144.625C125.737 144.625 123.586 143.973 121.757 142.75C119.927 141.528 118.501 139.79 117.659 137.757C116.817 135.725 116.597 133.488 117.026 131.33C117.456 129.172 118.515 127.189 120.071 125.633C121.627 124.078 123.609 123.018 125.767 122.589C127.925 122.16 130.162 122.38 132.195 123.222C134.228 124.064 135.965 125.49 137.188 127.319C138.41 129.149 139.063 131.3 139.063 133.5C139.06 136.45 137.887 139.278 135.801 141.363C133.715 143.449 130.887 144.622 127.938 144.625ZM155.75 127.938H149.398C148.172 123.173 145.401 118.949 141.517 115.93C137.633 112.91 132.857 111.264 127.938 111.25V100.125H155.75V127.938Z" fill="#75CFDB"/>
</svg>
