<svg width="638" height="342" viewBox="0 0 638 342" fill="none" xmlns="http://www.w3.org/2000/svg">
<path d="M314.755 332.714C307.291 332.885 299.922 331.014 293.444 327.303C287.301 323.661 281.997 318.764 277.876 312.932C273.433 306.637 269.902 299.746 267.387 292.463C264.664 284.739 262.521 276.822 260.976 268.779C259.424 260.964 258.35 253.061 257.761 245.115C257.185 237.455 256.904 230.462 256.917 224.136C256.931 217.81 257.212 210.935 257.761 203.511C258.323 196.002 259.398 188.541 260.976 181.179C262.547 173.738 264.751 166.444 267.564 159.377C270.178 152.631 273.764 146.303 278.21 140.595C282.446 135.229 287.746 130.797 293.777 127.577C300.449 124.183 307.86 122.499 315.343 122.675C322.5 122.486 329.574 124.241 335.812 127.753C341.609 131.172 346.668 135.711 350.693 141.105C354.997 146.877 358.414 153.261 360.829 160.044C363.436 167.205 365.475 174.561 366.927 182.042C368.375 189.473 369.39 196.982 369.966 204.53C370.541 211.954 370.822 218.718 370.809 224.822C370.809 230.678 370.528 237.442 369.966 245.115C369.377 253.006 368.362 260.86 366.927 268.642C365.465 276.637 363.373 284.504 360.673 292.169C358.169 299.424 354.7 306.308 350.36 312.638C346.361 318.437 341.241 323.377 335.302 327.166C329.13 330.953 321.995 332.88 314.755 332.714ZM286.679 224.881C286.679 228.038 286.679 232.096 287.013 237.057C287.346 242.017 287.738 247.428 288.542 253.29C289.346 259.153 290.346 265.054 291.581 270.936C292.688 276.405 294.391 281.737 296.659 286.836C298.546 291.167 301.203 295.119 304.501 298.502C305.927 299.972 307.638 301.136 309.529 301.921C311.421 302.707 313.452 303.098 315.5 303.07C317.35 303.038 319.167 302.579 320.81 301.729C322.452 300.879 323.876 299.66 324.97 298.169C327.929 294.449 330.272 290.279 331.911 285.817C333.956 280.379 335.537 274.778 336.636 269.073C337.864 262.878 338.825 256.846 339.518 250.977C340.21 245.108 340.661 239.808 340.87 235.076C341.086 230.351 341.204 226.744 341.204 224.254C341.204 219.744 340.864 213.431 340.184 205.314C339.517 197.275 338.206 189.303 336.263 181.473C334.638 174.368 331.997 167.533 328.421 161.181C325.022 155.43 320.513 152.555 314.893 152.555C310.844 152.463 306.912 153.914 303.894 156.613C300.643 159.6 298.052 163.233 296.286 167.279C294.125 172.049 292.482 177.038 291.385 182.16C290.078 187.689 289.117 193.1 288.503 198.393C287.888 203.687 287.438 208.7 287.15 213.431C286.758 218.058 286.758 221.881 286.758 224.822L286.679 224.881Z" fill="#F41316"/>
<path d="M386.455 328.989C383.514 328.989 383.063 327.636 385.102 324.931C387.482 321.449 389.455 317.706 390.984 313.775C392.37 309.404 393 304.829 392.846 300.247V157.515C393.013 152.822 392.383 148.135 390.984 143.653C389.459 139.714 387.486 135.964 385.102 132.478C383.063 129.772 383.514 128.419 386.455 128.419H418.589C447.449 128.419 468.584 136.765 481.995 153.456C495.405 170.148 502.117 193.257 502.13 222.783C502.178 236.391 501.043 249.976 498.738 263.387C496.8 275.32 492.615 286.776 486.406 297.149C480.353 306.907 471.832 314.894 461.702 320.304C451.246 326.068 437.777 328.943 421.294 328.93L386.455 328.989ZM422.647 298.561C422.634 298.651 422.642 298.744 422.671 298.83C422.7 298.917 422.749 298.996 422.813 299.061C422.878 299.126 422.957 299.174 423.044 299.203C423.131 299.232 423.223 299.24 423.314 299.227C434.594 299.462 443.502 297.319 450.037 292.796C456.511 288.379 461.613 282.231 464.761 275.053C468.154 267.206 470.266 258.865 471.015 250.349C471.917 241.2 472.368 232.011 472.368 222.783C472.454 213.895 471.798 205.016 470.408 196.237C469.348 189.058 466.876 182.161 463.134 175.944C459.499 170.29 454.34 165.777 448.253 162.926C441.822 159.763 433.535 158.181 423.392 158.181C423.301 158.172 423.208 158.183 423.121 158.214C423.035 158.246 422.956 158.296 422.892 158.362C422.828 158.428 422.779 158.508 422.751 158.596C422.722 158.683 422.713 158.776 422.726 158.868L422.647 298.561Z" fill="#F41316"/>
<path d="M508.306 328.989C506.345 328.989 505.149 328.479 504.934 327.479C504.718 326.48 505.483 325.166 507.306 323.558C510.617 321.024 513.328 317.791 515.247 314.089C516.961 310.089 518.154 305.884 518.795 301.58L544.832 156.495C545.675 152.21 546.018 147.841 545.852 143.477C545.465 139.554 544.155 135.778 542.028 132.458C540.225 129.753 540.793 128.4 543.734 128.4H592.435C592.527 128.39 592.62 128.401 592.706 128.433C592.793 128.464 592.872 128.515 592.936 128.581C593 128.647 593.048 128.727 593.077 128.814C593.106 128.902 593.114 128.995 593.102 129.086L624.217 301.619C624.864 305.925 626.063 310.129 627.785 314.128C629.69 317.839 632.404 321.075 635.726 323.598C637.529 325.186 638.255 326.48 637.921 327.519C637.588 328.558 636.51 329.028 634.706 329.028H593.102C590.181 329.028 589.612 327.676 591.416 324.97C593.686 321.687 595.187 317.934 595.808 313.991C596.195 309.509 595.857 304.994 594.808 300.619L590.749 279.307C590.759 279.216 590.748 279.123 590.717 279.036C590.685 278.95 590.635 278.871 590.568 278.807C590.502 278.743 590.423 278.695 590.335 278.666C590.247 278.637 590.154 278.628 590.063 278.641H552.518C552.302 278.641 551.949 278.857 551.518 279.307L548.126 300.286C547.273 304.682 546.99 309.169 547.283 313.638C547.741 317.706 549.195 321.598 551.518 324.97C553.086 327.676 552.518 329.028 549.812 329.028L508.306 328.989ZM555.655 254.584C555.645 254.676 555.656 254.769 555.687 254.855C555.719 254.942 555.769 255.02 555.835 255.085C555.902 255.149 555.981 255.197 556.069 255.226C556.156 255.255 556.249 255.263 556.341 255.251H587.122C587.213 255.264 587.305 255.256 587.392 255.227C587.479 255.198 587.558 255.149 587.623 255.085C587.687 255.02 587.736 254.941 587.765 254.854C587.794 254.767 587.802 254.675 587.789 254.584L572.477 159.907H570.516L555.655 254.584Z" fill="#F41316"/>
<path d="M104.422 277.171C104.227 269.109 105.716 261.096 108.794 253.643C111.438 247.402 115.335 241.77 120.244 237.096C124.804 232.797 130.186 229.462 136.066 227.293C141.784 225.18 147.831 224.098 153.927 224.097C159.795 224.001 165.624 225.06 171.082 227.214C175.714 229.054 179.948 231.77 183.552 235.214C186.805 238.35 189.381 242.12 191.12 246.291C192.759 250.149 193.619 254.294 193.649 258.486C193.659 261.994 193.035 265.474 191.806 268.76C190.703 271.818 188.912 274.581 186.571 276.837C184.183 279.058 181.299 280.678 178.16 281.562C174.401 282.57 170.436 282.509 166.71 281.386C165.142 281.17 164.906 280.268 166.044 278.7C167.295 277.356 168.215 275.738 168.73 273.975C169.401 272.025 169.745 269.978 169.749 267.917C169.769 264.361 168.579 260.905 166.377 258.114C164.129 255.199 160.207 253.741 154.613 253.741C149.467 253.816 144.514 255.713 140.634 259.094C136.268 262.662 134.079 268.688 134.066 277.171C133.98 282.194 135.203 287.154 137.615 291.561C139.931 295.777 143.08 299.479 146.869 302.443C150.85 305.555 155.35 307.937 160.162 309.481C165.105 311.134 170.282 311.981 175.494 311.991C180.714 311.978 185.893 311.069 190.806 309.305C195.852 307.509 200.447 304.639 204.275 300.894C208.448 296.704 211.665 291.661 213.706 286.111C216.22 279.104 217.416 271.692 217.235 264.25C217.312 255.379 215.111 246.637 210.843 238.86C206.366 230.889 200.912 223.506 194.609 216.882C187.961 209.801 180.953 203.067 173.611 196.707C166.096 190.172 159.083 183.637 152.574 177.101C146.402 170.924 140.979 164.041 136.419 156.594C132.203 149.751 129.982 141.868 130.008 133.831C129.932 126.669 131.189 119.555 133.713 112.852C136.05 106.702 139.537 101.053 143.987 96.207C148.418 91.4765 153.814 87.7524 159.809 85.2864C166.382 82.6183 173.42 81.2854 180.513 81.3652C186.612 81.3281 192.666 82.4114 198.374 84.561C203.765 86.596 208.77 89.533 213.176 93.2465C217.391 96.7703 220.829 101.13 223.274 106.049C225.739 110.957 227.008 116.379 226.979 121.871C226.979 131.295 224.849 138.138 220.587 142.399C218.31 144.577 215.613 146.269 212.66 147.372C209.707 148.474 206.561 148.963 203.413 148.81C198.653 148.944 193.999 147.388 190.277 144.418C188.616 143.178 187.223 141.615 186.182 139.822C185.14 138.03 184.473 136.045 184.218 133.988C184.218 132.184 185.238 131.635 187.257 132.302C189.887 132.983 192.675 132.683 195.1 131.459C197.779 130.217 199.125 127.243 199.138 122.538C199.141 120.543 198.612 118.583 197.605 116.86C196.599 115.137 195.152 113.713 193.414 112.735C189.587 110.213 185.095 108.889 180.513 108.931C175.282 108.962 170.224 110.805 166.2 114.146C161.822 117.636 159.639 123.642 159.652 132.164C159.652 137.105 161.769 142.262 166.044 147.653C170.963 153.744 176.365 159.429 182.199 164.652C188.734 170.612 195.753 177.069 203.256 184.022C210.81 191.021 217.841 198.563 224.293 206.589C230.826 214.7 236.258 223.64 240.448 233.175C244.775 243.062 246.96 253.753 246.86 264.544C247.157 276.394 245.091 288.185 240.782 299.227C237.172 308.265 231.662 316.422 224.626 323.147C218.043 329.337 210.245 334.09 201.726 337.106C193.303 340.123 184.421 341.661 175.474 341.655C166.536 341.656 157.658 340.178 149.202 337.283C140.916 334.479 133.214 330.18 126.479 324.598C119.805 319.016 114.358 312.114 110.48 304.325C106.337 295.882 104.26 286.574 104.422 277.171Z" fill="#F41316"/>
<g style="mix-blend-mode:multiply">
<path d="M24.0371 182.806C23.1426 186.609 22.7212 190.507 22.7823 194.413C22.6196 198.281 23.2882 202.138 24.7429 205.726C25.3446 207.025 26.3737 208.078 27.6582 208.709C28.9428 209.341 30.4051 209.513 31.8011 209.196C33.7317 209.021 35.5671 208.277 37.0751 207.059C38.6238 205.761 39.8122 204.087 40.5258 202.197C41.3224 202.469 42.001 203.008 42.4473 203.722C42.8936 204.436 43.0804 205.282 42.9765 206.118C42.9856 208.068 42.2892 209.955 41.0159 211.431C39.6555 213.043 37.9457 214.324 36.0164 215.176C34.0047 216.113 31.8515 216.709 29.6444 216.94C23.4097 217.646 18.835 216.176 15.9202 212.529C13.0054 208.882 11.5677 203.719 11.6069 197.04C11.3516 191.117 12.9558 185.263 16.1947 180.297C17.8262 178.113 19.9239 176.32 22.3352 175.048C24.7465 173.776 27.4108 173.058 30.1346 172.945C33.3135 172.476 36.5598 172.855 39.5455 174.042C40.7427 174.573 41.7438 175.466 42.4084 176.594C43.0729 177.723 43.3675 179.031 43.251 180.336C43.2731 181.184 43.1268 182.028 42.8206 182.818C42.5143 183.609 42.0542 184.332 41.4668 184.943C40.2662 186.195 38.6475 186.963 36.9182 187.1C35.8168 187.287 34.6852 187.172 33.644 186.767C33.8853 185.672 34.0166 184.555 34.0362 183.434C34.0362 179.179 32.4873 177.219 29.3895 177.552C28.0419 177.713 26.7856 178.316 25.8171 179.266C24.8487 180.217 24.2227 181.462 24.0371 182.806Z" fill="#EFE7E1"/>
<path d="M77.738 173.631C80.6135 177.042 82.0579 182.068 82.0709 188.708C82.3065 194.599 80.7846 200.427 77.6988 205.451C76.1627 207.667 74.1393 209.501 71.784 210.813C69.4288 212.125 66.8042 212.88 64.1118 213.019C58.0339 213.699 53.518 212.255 50.564 208.686C47.6231 205.099 46.1527 200.001 46.1527 193.355C45.8984 187.519 47.4158 181.744 50.5052 176.787C52.0681 174.613 54.1055 172.822 56.4629 171.552C58.8204 170.282 61.4361 169.564 64.1118 169.455C70.3073 168.827 74.8363 170.219 77.738 173.631ZM69.5623 203.04C70.4864 198.857 70.9077 194.579 70.8171 190.296C70.9096 186.232 70.4814 182.174 69.5427 178.219C68.68 175.082 66.8763 173.65 64.1118 173.945C61.3474 174.239 59.524 176.042 58.6417 179.395C57.6829 183.44 57.2415 187.591 57.3281 191.747C57.2341 195.94 57.6622 200.129 58.6025 204.216C59.4652 207.432 61.3081 208.882 64.1118 208.569C66.9155 208.255 68.7388 206.393 69.5623 203.04Z" fill="#EFE7E1"/>
<path d="M108.5 206.726L93.7365 179.277V208.353L87.2077 209.079V168.318L97.893 167.22L112.637 194.668V165.788L119.107 165.122V205.53L108.5 206.726Z" fill="#EFE7E1"/>
<path d="M18.39 157.181C23.7228 156.652 96.8141 149.594 101.931 149.339C107.048 149.084 112.322 148.947 117.616 148.653C118.973 148.515 120.343 148.594 121.675 148.888C122.866 149.112 123.972 149.662 124.87 150.476C125.655 151.025 126.047 151.555 126.047 152.104C126.047 152.652 125.262 153.594 123.674 154.064L122.498 154.182H121.459H119.675L118.636 154.28C113.322 154.809 107.95 155.593 102.578 156.593C97.2062 157.593 24.0169 165.416 18.5861 166.396L17.5469 166.514C15.6208 166.755 13.6651 166.505 11.8612 165.789C10.2348 165.079 8.79271 164.006 7.64589 162.652C7.0152 162.171 6.58826 161.471 6.44992 160.691C6.4762 160.385 6.58742 160.093 6.77103 159.847C6.95463 159.601 7.20332 159.411 7.48904 159.299C8.28483 158.866 9.12661 158.524 9.99861 158.279C11.0642 157.967 12.1523 157.738 13.2532 157.593C14.4492 157.436 15.5275 157.319 16.5274 157.221L18.39 157.181Z" fill="#EFE7E1"/>
<path d="M18.1553 226.351C23.4097 225.763 95.2854 217.803 100.501 217.568C105.716 217.333 110.715 217.038 115.872 216.686C117.181 216.552 118.503 216.618 119.793 216.882C120.966 217.084 122.056 217.622 122.93 218.43C123.714 218.96 124.087 219.489 124.087 220.019C124.087 220.881 123.322 221.548 121.773 221.979L120.597 222.097L119.577 222.214H117.832L116.813 222.332C111.585 222.92 106.311 223.757 100.991 224.842C95.6971 225.9 23.6646 234.645 18.3317 235.625L17.3122 235.743C15.4123 236.026 13.4712 235.803 11.6853 235.096C10.0842 234.408 8.66708 233.354 7.54843 232.017C6.92935 231.53 6.51074 230.832 6.37207 230.057C6.39533 229.75 6.50287 229.456 6.68279 229.207C6.86272 228.958 7.10802 228.764 7.39158 228.645C8.17733 228.21 9.00498 227.855 9.86194 227.586C10.9136 227.268 11.9887 227.032 13.0773 226.881C14.2341 226.704 15.3124 226.567 16.2927 226.449L18.1553 226.351Z" fill="#EFE7E1"/>
</g>
<g style="mix-blend-mode:multiply">
<path d="M56.2 42.8L55.36 52.28H38.2V122H18.28V52.28H0.52V42.8H56.2ZM93.0522 40.4C104.892 40.4 113.572 44 119.092 51.2C124.612 58.4 127.372 68.44 127.372 81.32C127.372 94.52 124.572 105.04 118.972 112.88C113.452 120.72 104.812 124.64 93.0522 124.64C81.4522 124.64 72.8122 120.88 67.1322 113.36C61.5322 105.84 58.7322 95.68 58.7322 82.88C58.7322 69.84 61.4922 59.52 67.0122 51.92C72.6122 44.24 81.2922 40.4 93.0522 40.4ZM93.0522 116C98.4122 116 101.892 112.84 103.492 106.52C105.092 100.12 105.892 91.96 105.892 82.04C105.892 72.52 105.052 64.64 103.372 58.4C101.772 52.16 98.3322 49.04 93.0522 49.04C87.7722 49.04 84.2922 52.2 82.6122 58.52C80.9322 64.76 80.0922 72.6 80.0922 82.04C80.0922 91.88 80.8922 100 82.4922 106.4C84.1722 112.8 87.6922 116 93.0522 116ZM219.769 42.8V122H199.849V58.28L180.529 122H169.009L149.689 58.16V122H137.209V42.8H164.329L178.849 93.32L193.249 42.8H219.769ZM271.592 42.8L291.872 122H271.592L267.032 102.44H244.832L240.392 122H225.872L247.712 42.8H271.592ZM247.112 92.96H264.872L255.872 54.56L247.112 92.96ZM347.177 42.8L346.337 52.28H329.177V122H309.257V52.28H291.497V42.8H347.177ZM396.629 42.8V52.28H372.989V76.52H393.029V86.12H372.989V112.52H398.309L397.469 122H353.069V42.8H396.629ZM406.741 42.8H426.661V112.16H450.421L449.461 122H406.741V42.8ZM488.56 40.4C500.4 40.4 509.08 44 514.6 51.2C520.12 58.4 522.88 68.44 522.88 81.32C522.88 94.52 520.08 105.04 514.48 112.88C508.96 120.72 500.32 124.64 488.56 124.64C476.96 124.64 468.32 120.88 462.64 113.36C457.04 105.84 454.24 95.68 454.24 82.88C454.24 69.84 457 59.52 462.52 51.92C468.12 44.24 476.8 40.4 488.56 40.4ZM488.56 116C493.92 116 497.4 112.84 499 106.52C500.6 100.12 501.4 91.96 501.4 82.04C501.4 72.52 500.56 64.64 498.88 58.4C497.28 52.16 493.84 49.04 488.56 49.04C483.28 49.04 479.8 52.2 478.12 58.52C476.44 64.76 475.6 72.6 475.6 82.04C475.6 91.88 476.4 100 478 106.4C479.68 112.8 483.2 116 488.56 116Z" fill="#02536E"/>
</g>
</svg>
