<svg width="106" height="106" viewBox="0 0 106 106" fill="none" xmlns="http://www.w3.org/2000/svg">
<path d="M95 26.75H88.6528C89.4228 24.1974 89.7929 21.5409 89.75 18.875C89.75 8.7425 81.5075 0.5 71.375 0.5C62.8595 0.5 57.1737 8.2805 53.504 16.6963C49.8867 8.7425 43.9123 0.5 34.625 0.5C24.4925 0.5 16.25 8.7425 16.25 18.875C16.25 22.004 16.6648 24.5923 17.3472 26.75H11C5.20925 26.75 0.5 31.4593 0.5 37.25V47.75C0.5 53.5408 5.20925 58.25 11 58.25V95C11 100.791 15.7092 105.5 21.5 105.5H84.5C90.2907 105.5 95 100.791 95 95V58.25C100.791 58.25 105.5 53.5408 105.5 47.75V37.25C105.5 31.4593 100.791 26.75 95 26.75ZM71.375 11C75.7168 11 79.25 14.5333 79.25 18.875C79.25 26.75 75.9635 26.75 74 26.75H60.9905C63.6733 18.476 67.5687 11 71.375 11ZM26.75 18.875C26.75 14.5333 30.2833 11 34.625 11C39.287 11 43.6235 19.0063 46.1645 26.75H32C30.0365 26.75 26.75 26.75 26.75 18.875ZM11 37.25H47.75V47.75H11V37.25ZM21.5 95V58.25H47.75V95H21.5ZM84.5 95H58.25V58.25H84.5V95ZM58.25 47.75V37.6963L58.3393 37.25H95L95.0052 47.75H58.25Z" fill="#75CFDB"/>
</svg>
