<svg width="37" height="32" viewBox="0 0 37 32" fill="none" xmlns="http://www.w3.org/2000/svg">
<path d="M36.645 10.6908C36.5115 10.5312 36.3457 10.403 36.1592 10.3151C35.9726 10.2272 35.7697 10.1817 35.5643 10.1818H27.0327V4.36361C27.0327 3.20631 26.5833 2.09641 25.7833 1.27807C24.9833 0.459736 23.8983 0 22.7669 0H14.2354C13.104 0 12.019 0.459736 11.219 1.27807C10.419 2.09641 9.96959 3.20631 9.96959 4.36361V10.1818H1.43803C1.23191 10.1794 1.02776 10.2229 0.839702 10.3092C0.651647 10.3955 0.48419 10.5227 0.348933 10.6818C0.213677 10.8409 0.113855 11.0282 0.056385 11.2307C-0.00108549 11.4332 -0.0148307 11.646 0.0161016 11.8545L2.68933 29.5271C2.79216 30.2208 3.13662 30.8531 3.65921 31.3075C4.18181 31.7619 4.84734 32.0077 5.53318 31.9998H31.4976C32.1834 32.0077 32.8489 31.7619 33.3715 31.3075C33.8941 30.8531 34.2386 30.2208 34.3414 29.5271L36.9862 11.8545C37.0147 11.6468 36.9989 11.4353 36.94 11.2345C36.8811 11.0336 36.7805 10.8482 36.645 10.6908ZM12.8134 4.36361C12.8134 3.97784 12.9633 3.60788 13.2299 3.3351C13.4966 3.06232 13.8583 2.90907 14.2354 2.90907H22.7669C23.1441 2.90907 23.5057 3.06232 23.7724 3.3351C24.0391 3.60788 24.1889 3.97784 24.1889 4.36361V10.1818H12.8134V4.36361ZM31.4976 29.0907H5.50474L3.10168 13.0908H33.9006L31.4976 29.0907Z" fill="#02536E"/>
</svg>
