<svg width="59" height="60" viewBox="0 0 59 60" fill="none" xmlns="http://www.w3.org/2000/svg">
<path d="M48.7738 52.1576L47.4933 53.1388L45.181 55.1949L43.8968 56.1761C39.532 58.7276 35.0398 60.0022 30.4201 59.9998C27.3188 60.0114 24.238 59.498 21.3081 58.4811C18.5004 57.5223 15.8421 56.1718 13.4118 54.4699C11.1229 52.862 9.05196 50.9644 7.2506 48.8245C5.60515 46.9039 4.24339 44.7574 3.20686 42.4505C1.1359 38.4144 0.0376892 33.95 0 29.4138C0.0390417 25.9971 0.668774 22.6129 1.86135 19.4109C3.10972 15.9331 4.97982 12.7111 7.38047 9.90211C9.9151 6.95108 13.0128 4.53519 16.4924 2.7958C20.1285 0.932043 24.343 0.000166055 29.1359 0.000166055C33.691 -0.0144689 38.1973 0.938427 42.3565 2.7958C46.5482 4.65715 49.8428 7.25438 52.2404 10.5875C54.2532 13.0921 55.7768 15.9532 56.7315 19.0213C57.7607 22.2221 58.2742 26.1108 58.2718 30.6872C58.2718 33.9554 57.5239 37.4688 56.0281 41.2276C54.5322 44.9864 52.1142 48.6297 48.7738 52.1576Z" fill="#F41316"/>
<path d="M41.8442 44.1853C41.9591 44.1341 42.0804 44.0989 42.2049 44.0807C42.3131 44.0807 42.4429 44.0807 42.598 44.059L43.1103 44.0338C43.2417 44.0325 43.3729 44.0241 43.5034 44.0085C43.6276 43.991 43.7489 43.957 43.8641 43.9075C44.4016 43.6803 44.7118 43.1861 44.802 42.4214C44.9552 41.9885 45.1768 41.583 45.4584 41.2203C45.7436 40.8597 46.1161 40.5779 46.5406 40.4015L46.7822 40.3005C47.2305 40.0804 47.744 40.0329 48.2251 40.167C48.4302 40.2329 48.6181 40.3438 48.7747 40.4918C48.9314 40.6397 49.0529 40.8208 49.1304 41.0219C49.3187 41.478 49.3834 41.9756 49.318 42.4647C49.2493 42.9812 49.111 43.4859 48.9068 43.9653C48.7089 44.4291 48.4426 44.8608 48.1169 45.2458C47.8706 45.56 47.556 45.8141 47.1971 45.9888C46.4354 46.2998 45.6243 46.4721 44.802 46.4974C43.9484 46.5345 43.1026 46.3227 42.3672 45.8878C42.1774 45.8729 41.9952 45.8066 41.8401 45.696C41.6851 45.5855 41.563 45.4348 41.4871 45.2602C41.2755 44.736 41.3945 44.3777 41.8442 44.1853Z" fill="#75CFDB"/>
<path d="M40.4807 48.8641C40.5318 48.7316 40.6063 48.6094 40.7008 48.5034C40.8002 48.3961 40.9115 48.3005 41.0326 48.2184C41.1409 48.1394 41.2634 48.0819 41.3933 48.0489C41.5131 48.0208 41.6385 48.0283 41.754 48.0705C41.9279 48.1423 42.0736 48.269 42.1688 48.4312C42.2715 48.5708 42.3654 48.7166 42.4502 48.8677C42.5507 49.0421 42.6398 49.2229 42.7171 49.4088C42.7892 49.5892 42.8424 49.7765 42.8758 49.9679C42.9091 50.1414 42.8954 50.3208 42.8361 50.4873C42.7317 50.7453 42.5294 50.9515 42.2734 51.0608C41.999 51.1887 41.6872 51.2118 41.3969 51.1257C41.2217 51.0147 41.0657 50.8758 40.9352 50.7145C40.7886 50.5347 40.6672 50.3357 40.5745 50.123C40.481 49.9122 40.4202 49.6884 40.3942 49.4593C40.3754 49.2568 40.405 49.0528 40.4807 48.8641Z" fill="#75CFDB"/>
<path d="M13.8806 8.1346C14.0153 7.88626 14.1634 7.64544 14.3243 7.41318C14.5118 7.13407 14.7322 6.87854 14.9808 6.65209C15.205 6.44344 15.467 6.27941 15.7527 6.16875C15.8859 6.12047 16.0279 6.10128 16.1691 6.11248C16.3103 6.12368 16.4475 6.165 16.5715 6.23367C17.8407 6.89638 19.0022 7.7477 20.0162 8.75862C21.0003 9.71023 21.8673 10.7758 22.5989 11.9328C22.6866 12.1349 22.7542 12.3451 22.8009 12.5605C22.8327 12.7255 22.8059 12.8964 22.7251 13.0438C22.6469 13.155 22.552 13.2536 22.4438 13.336C22.3758 13.415 22.2809 13.4657 22.1775 13.4784C22.0741 13.4911 21.9697 13.4647 21.8847 13.4045C21.6863 13.2855 21.4807 13.1701 21.2751 13.0618C20.7371 12.6187 20.1558 12.2307 19.5401 11.904C18.7357 11.4882 17.8892 11.1593 17.0151 10.9229C16.1301 10.6814 15.2316 10.4923 14.3243 10.3565C14.2017 10.3773 14.0757 10.3597 13.9636 10.306C13.8123 10.2479 13.6652 10.1792 13.5235 10.1004C13.4639 9.7486 13.4725 9.38858 13.5488 9.03997C13.6224 8.72589 13.7338 8.42189 13.8806 8.1346Z" fill="#75CFDB"/>
<path d="M21.5207 15.2805C21.4607 15.3305 21.3939 15.3718 21.3223 15.4031C21.261 15.4284 21.1852 15.4536 21.0914 15.4825L20.1139 15.5438C20.0201 15.5726 19.9444 15.5979 19.8831 15.6231C19.8115 15.6544 19.7447 15.6957 19.6847 15.7458C19.5394 15.8723 19.4326 16.0372 19.3765 16.2215C19.3204 16.4058 19.3172 16.6022 19.3673 16.7882C19.3478 17.0735 19.282 17.3537 19.1725 17.6179C19.0568 17.8826 18.8756 18.1135 18.6459 18.2888L18.5196 18.3898C18.287 18.5936 17.9885 18.7063 17.6792 18.7072C17.5459 18.7012 17.4157 18.6658 17.2978 18.6034C17.1799 18.541 17.0773 18.4533 16.9974 18.3465C16.8036 18.1026 16.679 17.8111 16.6367 17.5024C16.5898 17.1819 16.5898 16.8563 16.6367 16.5357C16.6765 16.2259 16.7642 15.9242 16.8964 15.6412C16.9929 15.412 17.1396 15.2074 17.3257 15.0424C17.7295 14.7297 18.1865 14.4926 18.6747 14.3426C19.4125 14.1911 20.1733 14.1911 20.9111 14.3426C21.0268 14.3202 21.1465 14.3298 21.2571 14.3705C21.3678 14.4112 21.4651 14.4814 21.5387 14.5735C21.7696 14.8548 21.7624 15.0893 21.5207 15.2805Z" fill="#75CFDB"/>
<path d="M13.6499 12.4055C13.6956 12.1492 13.822 11.9141 14.0106 11.7346C14.0824 11.6396 14.1767 11.5638 14.2849 11.5141C14.3932 11.4644 14.5121 11.4422 14.631 11.4496C14.8244 11.4846 15.0049 11.5705 15.154 11.6985C15.3321 11.8406 15.4921 12.0042 15.6301 12.1855C15.7688 12.3662 15.884 12.5637 15.9728 12.7734C16.0558 12.9525 16.0882 13.1508 16.0666 13.347C16.0516 13.4679 16.0118 13.5844 15.9497 13.6893C15.8876 13.7942 15.8047 13.8852 15.7059 13.9566C15.4957 14.1083 15.2437 14.1914 14.9845 14.1946H14.9556C14.5933 14.0613 14.275 13.8304 14.0358 13.5273C13.8916 13.3812 13.782 13.2045 13.7152 13.0103C13.6484 12.8162 13.6261 12.6095 13.6499 12.4055Z" fill="#75CFDB"/>
<path d="M17.7729 42.4759C17.7438 41.2051 17.9797 39.9422 18.4655 38.7676C18.8822 37.782 19.4959 36.892 20.2691 36.1523C20.9896 35.4742 21.84 34.949 22.769 34.6084C23.6785 34.2703 24.6412 34.0981 25.6115 34.0998C26.5386 34.0818 27.4603 34.2461 28.3242 34.5832C29.055 34.8766 29.7234 35.3062 30.2937 35.8493C30.8079 36.3449 31.2154 36.9402 31.4913 37.5988C31.748 38.2089 31.8828 38.8633 31.8881 39.5251C31.891 40.0795 31.7919 40.6298 31.5959 41.1484C31.4227 41.632 31.14 42.0691 30.7699 42.4254C30.3929 42.776 29.9378 43.032 29.4424 43.1721C28.85 43.3284 28.2259 43.3184 27.6388 43.1432C27.3899 43.1071 27.3574 42.9665 27.5342 42.7176C27.7307 42.5055 27.8763 42.2513 27.9598 41.9745C28.0633 41.6651 28.1169 41.3412 28.1185 41.0149C28.1215 40.4562 27.9346 39.9131 27.5883 39.4746C27.2324 39.0129 26.6107 38.782 25.7233 38.782C24.9109 38.7943 24.129 39.0932 23.5157 39.6261C22.8255 40.1937 22.4804 41.146 22.4804 42.4831C22.4661 43.2775 22.6588 44.0619 23.0395 44.7593C23.4022 45.4214 23.8927 46.005 24.4824 46.4763C25.1127 46.9673 25.8246 47.3434 26.5854 47.5874C27.3654 47.8502 28.1829 47.9843 29.0059 47.9842C29.8313 47.9831 30.6502 47.8391 31.4264 47.5585C32.2242 47.2765 32.9506 46.8235 33.5547 46.231C34.2132 45.5678 34.7213 44.7705 35.0445 43.8935C35.4407 42.7868 35.6291 41.6165 35.6 40.4414C35.6101 39.0404 35.2598 37.6603 34.5828 36.4337C33.8789 35.1732 33.021 34.0051 32.0288 32.9563C30.9782 31.8357 29.8693 30.7712 28.7065 29.7675C27.5161 28.743 26.4087 27.7041 25.3806 26.6616C24.4054 25.683 23.5482 24.5934 22.8267 23.4151C22.1649 22.3402 21.8152 21.1025 21.8166 19.8403C21.8043 18.7074 22.0025 17.5821 22.401 16.5216C22.7676 15.5486 23.3188 14.6557 24.0243 13.8919C24.7233 13.1425 25.5761 12.5531 26.5241 12.164C27.5625 11.7412 28.6749 11.5302 29.7959 11.5436C30.7591 11.5388 31.7151 11.71 32.6168 12.0486C33.4666 12.3663 34.2568 12.8248 34.9543 13.4049C35.6208 13.9621 36.1648 14.6511 36.5523 15.4286C36.9474 16.2027 37.1538 17.0593 37.1547 17.9284C37.1547 19.417 36.8181 20.4992 36.1447 21.175C35.785 21.5191 35.359 21.7865 34.8926 21.9608C34.4263 22.135 33.9293 22.2126 33.432 22.1886C32.6805 22.2104 31.9456 21.965 31.3579 21.496C31.0909 21.301 30.8665 21.0536 30.6984 20.7689C30.5304 20.4842 30.4221 20.1682 30.3803 19.8403C30.3803 19.5553 30.539 19.4796 30.8601 19.5733C31.2705 19.6764 31.7043 19.629 32.0829 19.4399C32.5086 19.2451 32.7214 18.7761 32.7214 18.0294C32.7209 17.7154 32.6368 17.4072 32.4776 17.1365C32.3185 16.8657 32.0901 16.6423 31.816 16.4891C31.216 16.0968 30.5127 15.8921 29.7959 15.9011C28.9691 15.9064 28.1697 16.1983 27.5342 16.7272C26.8416 17.2755 26.4989 18.2242 26.4989 19.5733C26.5481 20.4796 26.9043 21.3422 27.5089 22.0191C28.2853 22.9832 29.1395 23.882 30.0629 24.7065C31.0897 25.6468 32.1972 26.6664 33.3851 27.7654C34.5797 28.8702 35.6914 30.0614 36.711 31.3294C37.7422 32.6127 38.6009 34.0255 39.265 35.5319C39.9462 37.0921 40.2904 38.7786 40.275 40.4811C40.3223 42.354 39.9974 44.2177 39.3191 45.9641C38.7478 47.3913 37.8769 48.6792 36.7652 49.7409C35.7278 50.7176 34.4996 51.4692 33.1579 51.9485C31.8269 52.4259 30.4235 52.67 29.0095 52.67C27.5967 52.6712 26.1935 52.4371 24.8576 51.9774C23.5496 51.5334 22.3333 50.855 21.2683 49.9754C20.2147 49.0947 19.3549 48.0052 18.7433 46.7757C18.0828 45.4399 17.7502 43.9659 17.7729 42.4759Z" fill="#EFE7E1"/>
</svg>
