<svg width="222" height="69" viewBox="0 0 222 69" fill="none" xmlns="http://www.w3.org/2000/svg">
<g filter="url(#filter0_d_376_5936)">
<path d="M0 32.5C0 14.5507 14.5507 0 32.5 0H185.5C203.449 0 218 14.5507 218 32.5C218 50.4493 203.449 65 185.5 65H32.5C14.5507 65 0 50.4493 0 32.5Z" fill="white"/>
<path d="M43.8629 24.5L39.3879 41H34.3129L30.3129 24.5H34.5379L37.5629 38.55L40.5129 24.5H43.8629ZM47.0436 22.6C47.7269 22.6 48.2686 22.7583 48.6686 23.075C49.0852 23.3917 49.2936 23.8333 49.2936 24.4C49.2936 24.9833 49.0769 25.4333 48.6436 25.75C48.2102 26.05 47.6519 26.2 46.9686 26.2C46.3019 26.2 45.7519 26.05 45.3186 25.75C44.9019 25.4333 44.6936 25 44.6936 24.45C44.6936 23.8667 44.9102 23.4167 45.3436 23.1C45.7936 22.7667 46.3602 22.6 47.0436 22.6ZM48.8436 38.5C48.8436 38.9667 48.9019 39.375 49.0186 39.725C49.1352 40.075 49.3352 40.3833 49.6186 40.65C49.4352 40.8833 49.1519 41.0583 48.7686 41.175C48.4019 41.3083 48.0352 41.375 47.6686 41.375C46.8019 41.375 46.1436 41.1583 45.6936 40.725C45.2436 40.275 45.0186 39.6167 45.0186 38.75V28.25H48.8436V38.5ZM56.4068 29.125C55.9735 29.125 55.6235 29.25 55.3568 29.5C55.1068 29.75 54.9818 30.0833 54.9818 30.5C54.9818 31.1333 55.2152 31.6583 55.6818 32.075C56.1485 32.4917 56.8568 32.95 57.8068 33.45C58.5568 33.8667 59.1568 34.2333 59.6068 34.55C60.0568 34.85 60.4402 35.2417 60.7568 35.725C61.0735 36.1917 61.2318 36.7583 61.2318 37.425C61.2318 38.8083 60.7318 39.8417 59.7318 40.525C58.7318 41.2083 57.4402 41.55 55.8568 41.55C54.5568 41.55 53.4402 41.3417 52.5068 40.925C51.5735 40.5083 51.1068 39.8083 51.1068 38.825C51.1068 38.1917 51.3235 37.7167 51.7568 37.4C52.2068 37.0833 52.7818 36.925 53.4818 36.925C54.0318 36.925 54.4235 37.0083 54.6568 37.175C54.5568 37.5417 54.5068 37.9333 54.5068 38.35C54.5068 38.9167 54.6402 39.3667 54.9068 39.7C55.1735 40.0167 55.5652 40.175 56.0818 40.175C56.6152 40.175 57.0235 40.025 57.3068 39.725C57.5902 39.4083 57.7318 38.975 57.7318 38.425C57.7318 37.7917 57.4985 37.2667 57.0318 36.85C56.5652 36.4333 55.8652 35.975 54.9318 35.475C54.1818 35.075 53.5735 34.7167 53.1068 34.4C52.6568 34.0833 52.2735 33.6833 51.9568 33.2C51.6402 32.7167 51.4818 32.1417 51.4818 31.475C51.4818 30.225 51.9818 29.2917 52.9818 28.675C53.9818 28.0583 55.2152 27.75 56.6818 27.75C57.8985 27.75 58.9568 27.95 59.8568 28.35C60.7568 28.75 61.2068 29.4083 61.2068 30.325C61.2068 30.925 60.9735 31.3917 60.5068 31.725C60.0568 32.0417 59.4902 32.2 58.8068 32.2C58.6068 32.2 58.3902 32.1833 58.1568 32.15C57.9402 32.1167 57.7735 32.0583 57.6568 31.975C57.7568 31.5417 57.8068 31.1417 57.8068 30.775C57.8068 30.275 57.6818 29.875 57.4318 29.575C57.1985 29.275 56.8568 29.125 56.4068 29.125ZM65.3785 22.6C66.0618 22.6 66.6035 22.7583 67.0035 23.075C67.4202 23.3917 67.6285 23.8333 67.6285 24.4C67.6285 24.9833 67.4118 25.4333 66.9785 25.75C66.5452 26.05 65.9868 26.2 65.3035 26.2C64.6368 26.2 64.0868 26.05 63.6535 25.75C63.2368 25.4333 63.0285 25 63.0285 24.45C63.0285 23.8667 63.2452 23.4167 63.6785 23.1C64.1285 22.7667 64.6952 22.6 65.3785 22.6ZM67.1785 38.5C67.1785 38.9667 67.2368 39.375 67.3535 39.725C67.4702 40.075 67.6702 40.3833 67.9535 40.65C67.7702 40.8833 67.4868 41.0583 67.1035 41.175C66.7368 41.3083 66.3702 41.375 66.0035 41.375C65.1368 41.375 64.4785 41.1583 64.0285 40.725C63.5785 40.275 63.3535 39.6167 63.3535 38.75V28.25H67.1785V38.5ZM68.8418 29.375V28.6C69.6418 28.3 70.4501 27.8833 71.2668 27.35C72.0835 26.8167 72.7585 26.25 73.2918 25.65H74.3668V28.25H76.6668V29.375H74.3418V38.275C74.3418 38.7917 74.4335 39.1917 74.6168 39.475C74.8168 39.7417 75.1335 39.9167 75.5668 40C75.4001 40.4333 75.0918 40.7667 74.6418 41C74.1918 41.25 73.6918 41.375 73.1418 41.375C72.2751 41.375 71.6168 41.1417 71.1668 40.675C70.7335 40.2083 70.5168 39.5333 70.5168 38.65V29.375H68.8418ZM85.0805 39.875C84.7805 40.4583 84.3305 40.8833 83.7305 41.15C83.1305 41.4167 82.4555 41.55 81.7055 41.55C80.4221 41.55 79.3388 41.2167 78.4555 40.55C77.5721 39.8833 77.1305 38.9583 77.1305 37.775C77.1305 36.2083 77.8555 35.1417 79.3055 34.575C80.7555 34.0083 82.5805 33.725 84.7805 33.725V31.55C84.7805 30.7667 84.6721 30.1667 84.4555 29.75C84.2388 29.3333 83.8138 29.125 83.1805 29.125C82.5805 29.125 82.1138 29.3083 81.7805 29.675C81.4471 30.025 81.2805 30.5083 81.2805 31.125C81.2805 31.3917 81.3305 31.7917 81.4305 32.325C81.3138 32.4083 81.1388 32.475 80.9055 32.525C80.6721 32.5583 80.4555 32.575 80.2555 32.575C79.5721 32.575 79.0055 32.4167 78.5555 32.1C78.1055 31.7667 77.8805 31.2917 77.8805 30.675C77.8805 29.725 78.4138 29 79.4805 28.5C80.5638 28 81.8555 27.75 83.3555 27.75C85.1555 27.75 86.4805 28.1083 87.3305 28.825C88.1805 29.5417 88.6055 30.75 88.6055 32.45V38.5C88.6055 38.9667 88.6638 39.375 88.7805 39.725C88.8971 40.075 89.0971 40.3833 89.3805 40.65C89.1971 40.8833 88.9221 41.0583 88.5555 41.175C88.2055 41.3083 87.8471 41.375 87.4805 41.375C86.8638 41.375 86.3471 41.25 85.9305 41C85.5138 40.7333 85.2305 40.3583 85.0805 39.875ZM82.8805 39.825C83.5305 39.825 84.0055 39.5583 84.3055 39.025C84.6221 38.4917 84.7805 37.8417 84.7805 37.075V34.975C82.3138 34.975 81.0805 35.875 81.0805 37.675C81.0805 38.3083 81.2305 38.825 81.5305 39.225C81.8471 39.625 82.2971 39.825 82.8805 39.825ZM85.7055 21.875C86.0555 22.0083 86.3471 22.2333 86.5805 22.55C86.8305 22.85 86.9555 23.175 86.9555 23.525C86.9555 24.0417 86.7388 24.45 86.3055 24.75C85.8721 25.0333 85.2721 25.3083 84.5055 25.575L81.3805 26.675L80.8055 25.65L85.7055 21.875ZM99.6016 23.1V38.5C99.6016 38.9667 99.6599 39.375 99.7766 39.725C99.8932 40.075 100.093 40.3833 100.377 40.65C100.193 40.8833 99.9099 41.0583 99.5266 41.175C99.1599 41.3083 98.7932 41.375 98.4266 41.375C97.5599 41.375 96.9016 41.1583 96.4516 40.725C96.0016 40.275 95.7766 39.6167 95.7766 38.75V23.5L99.6016 23.1ZM109.812 39.875C109.512 40.4583 109.062 40.8833 108.462 41.15C107.862 41.4167 107.187 41.55 106.437 41.55C105.154 41.55 104.07 41.2167 103.187 40.55C102.304 39.8833 101.862 38.9583 101.862 37.775C101.862 36.2083 102.587 35.1417 104.037 34.575C105.487 34.0083 107.312 33.725 109.512 33.725V31.55C109.512 30.7667 109.404 30.1667 109.187 29.75C108.97 29.3333 108.545 29.125 107.912 29.125C107.312 29.125 106.845 29.3083 106.512 29.675C106.179 30.025 106.012 30.5083 106.012 31.125C106.012 31.3917 106.062 31.7917 106.162 32.325C106.045 32.4083 105.87 32.475 105.637 32.525C105.404 32.5583 105.187 32.575 104.987 32.575C104.304 32.575 103.737 32.4167 103.287 32.1C102.837 31.7667 102.612 31.2917 102.612 30.675C102.612 29.725 103.145 29 104.212 28.5C105.295 28 106.587 27.75 108.087 27.75C109.887 27.75 111.212 28.1083 112.062 28.825C112.912 29.5417 113.337 30.75 113.337 32.45V38.5C113.337 38.9667 113.395 39.375 113.512 39.725C113.629 40.075 113.829 40.3833 114.112 40.65C113.929 40.8833 113.654 41.0583 113.287 41.175C112.937 41.3083 112.579 41.375 112.212 41.375C111.595 41.375 111.079 41.25 110.662 41C110.245 40.7333 109.962 40.3583 109.812 39.875ZM107.612 39.825C108.262 39.825 108.737 39.5583 109.037 39.025C109.354 38.4917 109.512 37.8417 109.512 37.075V34.975C107.045 34.975 105.812 35.875 105.812 37.675C105.812 38.3083 105.962 38.825 106.262 39.225C106.579 39.625 107.029 39.825 107.612 39.825ZM119.208 29.375V28.6C120.008 28.3 120.816 27.8833 121.633 27.35C122.45 26.8167 123.125 26.25 123.658 25.65H124.733V28.25H127.033V29.375H124.708V38.275C124.708 38.7917 124.8 39.1917 124.983 39.475C125.183 39.7417 125.5 39.9167 125.933 40C125.766 40.4333 125.458 40.7667 125.008 41C124.558 41.25 124.058 41.375 123.508 41.375C122.641 41.375 121.983 41.1417 121.533 40.675C121.1 40.2083 120.883 39.5333 120.883 38.65V29.375H119.208ZM130.247 22.6C130.93 22.6 131.472 22.7583 131.872 23.075C132.288 23.3917 132.497 23.8333 132.497 24.4C132.497 24.9833 132.28 25.4333 131.847 25.75C131.413 26.05 130.855 26.2 130.172 26.2C129.505 26.2 128.955 26.05 128.522 25.75C128.105 25.4333 127.897 25 127.897 24.45C127.897 23.8667 128.113 23.4167 128.547 23.1C128.997 22.7667 129.563 22.6 130.247 22.6ZM132.047 38.5C132.047 38.9667 132.105 39.375 132.222 39.725C132.338 40.075 132.538 40.3833 132.822 40.65C132.638 40.8833 132.355 41.0583 131.972 41.175C131.605 41.3083 131.238 41.375 130.872 41.375C130.005 41.375 129.347 41.1583 128.897 40.725C128.447 40.275 128.222 39.6167 128.222 38.75V28.25H132.047V38.5ZM144.36 37.1C144.793 37.3 145.01 37.7083 145.01 38.325C145.01 39.0083 144.785 39.5917 144.335 40.075C143.885 40.5583 143.302 40.925 142.585 41.175C141.885 41.425 141.16 41.55 140.41 41.55C138.41 41.55 136.893 40.9417 135.86 39.725C134.843 38.5083 134.335 36.8417 134.335 34.725C134.335 32.5417 134.885 30.8333 135.985 29.6C137.102 28.3667 138.71 27.75 140.81 27.75C142.16 27.75 143.277 28.0583 144.16 28.675C145.043 29.2917 145.485 30.2 145.485 31.4C145.485 32.8833 144.96 33.9083 143.91 34.475C142.86 35.0417 141.427 35.325 139.61 35.325C139.043 35.325 138.602 35.3 138.285 35.25C138.335 36.4333 138.56 37.3667 138.96 38.05C139.377 38.7333 140.068 39.075 141.035 39.075C141.752 39.075 142.402 38.9083 142.985 38.575C143.585 38.225 144.043 37.7333 144.36 37.1ZM140.435 29.225C139.635 29.225 139.077 29.7167 138.76 30.7C138.46 31.6667 138.302 32.8 138.285 34.1H138.785C139.835 34.1167 140.627 33.925 141.16 33.525C141.71 33.125 141.985 32.4417 141.985 31.475C141.985 30.8417 141.852 30.3083 141.585 29.875C141.335 29.4417 140.952 29.225 140.435 29.225ZM147.436 28.25L150.561 27.95L150.736 30.2C151.369 28.5667 152.678 27.75 154.661 27.75C156.111 27.75 157.136 28.1417 157.736 28.925C158.353 29.7083 158.661 30.8833 158.661 32.45V38.5C158.661 38.9667 158.719 39.375 158.836 39.725C158.953 40.075 159.153 40.3833 159.436 40.65C159.253 40.8833 158.969 41.0583 158.586 41.175C158.219 41.3083 157.853 41.375 157.486 41.375C156.619 41.375 155.961 41.1583 155.511 40.725C155.061 40.275 154.836 39.6167 154.836 38.75V32.65C154.836 31.6667 154.744 30.925 154.561 30.425C154.378 29.9083 153.944 29.65 153.261 29.65C152.444 29.65 151.903 30.025 151.636 30.775C151.386 31.525 151.261 32.5167 151.261 33.75V41H147.436V28.25ZM172.55 38.5C172.55 38.9667 172.608 39.375 172.725 39.725C172.841 40.075 173.041 40.3833 173.325 40.65C173.141 40.8833 172.866 41.0583 172.5 41.175C172.15 41.3083 171.791 41.375 171.425 41.375C170.808 41.375 170.291 41.25 169.875 41C169.458 40.7333 169.175 40.3583 169.025 39.875C168.708 40.4417 168.25 40.8583 167.65 41.125C167.066 41.4083 166.408 41.55 165.675 41.55C163.958 41.55 162.716 40.9083 161.95 39.625C161.183 38.325 160.8 36.6417 160.8 34.575C160.8 32.425 161.316 30.75 162.35 29.55C163.383 28.35 164.933 27.75 167 27.75C167.683 27.75 168.258 27.8167 168.725 27.95V23.5L172.55 23.1V38.5ZM168.725 29.85C168.158 29.45 167.558 29.25 166.925 29.25C166.041 29.25 165.466 29.7333 165.2 30.7C164.933 31.65 164.8 32.9 164.8 34.45C164.8 35.9667 164.933 37.2333 165.2 38.25C165.483 39.25 166.05 39.75 166.9 39.75C167.516 39.75 167.975 39.4833 168.275 38.95C168.575 38.4167 168.725 37.7667 168.725 37V29.85ZM182.761 39.875C182.461 40.4583 182.011 40.8833 181.411 41.15C180.811 41.4167 180.136 41.55 179.386 41.55C178.103 41.55 177.019 41.2167 176.136 40.55C175.253 39.8833 174.811 38.9583 174.811 37.775C174.811 36.2083 175.536 35.1417 176.986 34.575C178.436 34.0083 180.261 33.725 182.461 33.725V31.55C182.461 30.7667 182.353 30.1667 182.136 29.75C181.919 29.3333 181.494 29.125 180.861 29.125C180.261 29.125 179.794 29.3083 179.461 29.675C179.128 30.025 178.961 30.5083 178.961 31.125C178.961 31.3917 179.011 31.7917 179.111 32.325C178.994 32.4083 178.819 32.475 178.586 32.525C178.353 32.5583 178.136 32.575 177.936 32.575C177.253 32.575 176.686 32.4167 176.236 32.1C175.786 31.7667 175.561 31.2917 175.561 30.675C175.561 29.725 176.094 29 177.161 28.5C178.244 28 179.536 27.75 181.036 27.75C182.836 27.75 184.161 28.1083 185.011 28.825C185.861 29.5417 186.286 30.75 186.286 32.45V38.5C186.286 38.9667 186.344 39.375 186.461 39.725C186.578 40.075 186.778 40.3833 187.061 40.65C186.878 40.8833 186.603 41.0583 186.236 41.175C185.886 41.3083 185.528 41.375 185.161 41.375C184.544 41.375 184.028 41.25 183.611 41C183.194 40.7333 182.911 40.3583 182.761 39.875ZM180.561 39.825C181.211 39.825 181.686 39.5583 181.986 39.025C182.303 38.4917 182.461 37.8417 182.461 37.075V34.975C179.994 34.975 178.761 35.875 178.761 37.675C178.761 38.3083 178.911 38.825 179.211 39.225C179.528 39.625 179.978 39.825 180.561 39.825Z" fill="#F41316"/>
<path d="M32.5 3H185.5V-3H32.5V3ZM185.5 62H32.5V68H185.5V62ZM32.5 62C16.2076 62 3 48.7924 3 32.5H-3C-3 52.1061 12.8939 68 32.5 68V62ZM215 32.5C215 48.7924 201.792 62 185.5 62V68C205.106 68 221 52.1061 221 32.5H215ZM185.5 3C201.792 3 215 16.2076 215 32.5H221C221 12.8939 205.106 -3 185.5 -3V3ZM32.5 -3C12.8939 -3 -3 12.8939 -3 32.5H3C3 16.2076 16.2076 3 32.5 3V-3Z" fill="#353535"/>
</g>
<defs>
<filter id="filter0_d_376_5936" x="0" y="0" width="222" height="69" filterUnits="userSpaceOnUse" color-interpolation-filters="sRGB">
<feFlood flood-opacity="0" result="BackgroundImageFix"/>
<feColorMatrix in="SourceAlpha" type="matrix" values="0 0 0 0 0 0 0 0 0 0 0 0 0 0 0 0 0 0 127 0" result="hardAlpha"/>
<feOffset dx="4" dy="4"/>
<feComposite in2="hardAlpha" operator="out"/>
<feColorMatrix type="matrix" values="0 0 0 0 0.208333 0 0 0 0 0.208333 0 0 0 0 0.208333 0 0 0 1 0"/>
<feBlend mode="normal" in2="BackgroundImageFix" result="effect1_dropShadow_376_5936"/>
<feBlend mode="normal" in="SourceGraphic" in2="effect1_dropShadow_376_5936" result="shape"/>
</filter>
</defs>
</svg>
