<svg width="70" height="70" viewBox="0 0 70 70" fill="none" xmlns="http://www.w3.org/2000/svg">
<circle cx="35" cy="35" r="33.5" fill="white" stroke="#F41316" stroke-width="3"/>
<path d="M19.4381 37.0237H45.0535L37.2134 46.8191C37.0318 47.0462 36.8951 47.3084 36.811 47.5905C36.7269 47.8727 36.697 48.1693 36.723 48.4634C36.7757 49.0575 37.0531 49.6055 37.4941 49.9868C37.9352 50.3682 38.5038 50.5516 39.075 50.4968C39.6461 50.4421 40.1729 50.1536 40.5395 49.6948L51.3385 36.215C51.4112 36.1077 51.4762 35.9951 51.5329 35.878C51.5329 35.7656 51.6409 35.6982 51.6841 35.5859C51.782 35.3283 51.8332 35.0541 51.8353 34.7771C51.8332 34.5001 51.782 34.2259 51.6841 33.9683C51.6841 33.856 51.5761 33.7886 51.5329 33.6763C51.4762 33.5591 51.4112 33.4465 51.3385 33.3393L40.5395 19.8595C40.3364 19.6058 40.0821 19.4019 39.7947 19.2621C39.5072 19.1223 39.1937 19.0501 38.8764 19.0507C38.3718 19.0496 37.8827 19.2325 37.4941 19.5674C37.2754 19.756 37.0947 19.9876 36.9622 20.249C36.8296 20.5104 36.748 20.7964 36.7219 21.0907C36.6959 21.3849 36.7258 21.6816 36.8102 21.9638C36.8945 22.246 37.0315 22.5081 37.2134 22.7351L45.0535 32.5305H19.4381C18.8653 32.5305 18.316 32.7672 17.9109 33.1885C17.5059 33.6098 17.2783 34.1813 17.2783 34.7771C17.2783 35.3729 17.5059 35.9444 17.9109 36.3657C18.316 36.787 18.8653 37.0237 19.4381 37.0237Z" fill="#F41316"/>
</svg>
