<svg width="70" height="70" viewBox="0 0 70 70" fill="none" xmlns="http://www.w3.org/2000/svg">
<circle cx="35" cy="35" r="33.5" transform="rotate(-180 35 35)" fill="white" stroke="#F41316" stroke-width="3"/>
<path d="M50.5619 32.9763L24.9465 32.9763L32.7866 23.1809C32.9682 22.9538 33.1049 22.6916 33.189 22.4095C33.2731 22.1273 33.303 21.8307 33.277 21.5366C33.2243 20.9425 32.9469 20.3945 32.5059 20.0132C32.0648 19.6318 31.4962 19.4484 30.925 19.5031C30.3539 19.5579 29.8271 19.8464 29.4605 20.3052L18.6615 33.785C18.5888 33.8923 18.5239 34.0049 18.4671 34.122C18.4671 34.2344 18.3591 34.3018 18.3159 34.4141C18.218 34.6717 18.1668 34.9459 18.1647 35.2229C18.1668 35.4999 18.218 35.7741 18.3159 36.0317C18.3159 36.144 18.4239 36.2114 18.4671 36.3237C18.5239 36.4409 18.5888 36.5535 18.6615 36.6607L29.4605 50.1405C29.6636 50.3942 29.9179 50.5981 30.2053 50.7379C30.4928 50.8777 30.8063 50.9499 31.1236 50.9493C31.6282 50.9504 32.1173 50.7675 32.5059 50.4326C32.7246 50.244 32.9053 50.0124 33.0378 49.751C33.1704 49.4896 33.252 49.2036 33.2781 48.9093C33.3041 48.6151 33.2742 48.3184 33.1898 48.0362C33.1055 47.754 32.9685 47.4919 32.7866 47.2649L24.9465 37.4695L50.5619 37.4695C51.1347 37.4695 51.684 37.2328 52.0891 36.8115C52.4941 36.3902 52.7217 35.8187 52.7217 35.2229C52.7217 34.6271 52.4941 34.0556 52.0891 33.6343C51.684 33.213 51.1347 32.9763 50.5619 32.9763Z" fill="#F41316"/>
</svg>
